<svg xmlns="http://www.w3.org/2000/svg" width="16" height="16" fill="none"><g fill="#232536" clip-path="url(#a)"><path d="M8 1.44c2.137 0 2.39.01 3.231.048.781.034 1.203.165 1.485.274.372.144.64.32.918.597.282.282.454.547.597.92.11.28.24.705.275 1.484.038.843.047 1.096.047 3.23 0 2.138-.01 2.391-.047 3.232-.034.781-.165 1.203-.275 1.484-.143.372-.319.641-.597.92a2.46 2.46 0 0 1-.918.596c-.282.11-.707.24-1.485.275-.844.037-1.097.047-3.231.047-2.138 0-2.39-.01-3.231-.047-.782-.034-1.203-.166-1.485-.275a2.474 2.474 0 0 1-.918-.597 2.46 2.46 0 0 1-.597-.919c-.11-.28-.24-.706-.275-1.484-.038-.844-.047-1.097-.047-3.231 0-2.138.01-2.39.047-3.231.034-.782.165-1.204.275-1.485.144-.372.319-.64.597-.919a2.46 2.46 0 0 1 .918-.597c.282-.109.707-.24 1.485-.274C5.609 1.45 5.862 1.44 8 1.44ZM8 0C5.828 0 5.556.01 4.703.047c-.85.037-1.434.175-1.94.372a3.905 3.905 0 0 0-1.42.925A3.92 3.92 0 0 0 .42 2.759C.222 3.27.084 3.85.047 4.7.009 5.556 0 5.828 0 8c0 2.172.01 2.444.047 3.297.037.85.175 1.434.372 1.94.206.529.478.976.925 1.42.444.443.89.718 1.415.921.51.197 1.091.335 1.941.372.853.038 1.125.047 3.297.047s2.444-.01 3.297-.047c.85-.037 1.434-.175 1.94-.372a3.91 3.91 0 0 0 1.416-.922 3.91 3.91 0 0 0 .922-1.415c.197-.51.334-1.091.372-1.941.037-.853.047-1.125.047-3.297s-.01-2.444-.047-3.297c-.038-.85-.175-1.434-.372-1.94a3.748 3.748 0 0 0-.916-1.422 3.911 3.911 0 0 0-1.415-.922C12.73.225 12.15.088 11.3.05 10.444.01 10.172 0 8 0Z"/><path d="M8 3.89a4.11 4.11 0 0 0 0 8.22 4.11 4.11 0 0 0 0-8.22Zm0 6.776a2.666 2.666 0 1 1 0-5.332 2.666 2.666 0 0 1 0 5.332ZM13.231 3.728a.96.96 0 1 1-1.919 0 .96.96 0 0 1 1.92 0Z"/></g><defs><clipPath id="a"><path fill="#fff" d="M0 0h16v16H0z"/></clipPath></defs></svg>