<svg xmlns="http://www.w3.org/2000/svg" width="16" height="16" fill="none"><g clip-path="url(#a)"><path fill="#6D6E76" d="M14.816 0H1.18C.528 0 0 .516 0 1.153v13.69A1.17 1.17 0 0 0 1.181 16h13.635c.653 0 1.184-.519 1.184-1.153V1.153C16 .516 15.469 0 14.816 0ZM4.746 13.634H2.373V5.997h2.375v7.637ZM3.56 4.956a1.376 1.376 0 1 1-.004-2.751 1.376 1.376 0 0 1 .004 2.751Zm10.075 8.678h-2.372V9.922c0-.885-.015-2.025-1.234-2.025-1.234 0-1.422.966-1.422 1.962v3.775H6.237V5.997h2.275V7.04h.032c.315-.6 1.09-1.235 2.243-1.235 2.404 0 2.847 1.582 2.847 3.638v4.19Z"/></g><defs><clipPath id="a"><path fill="#fff" d="M0 0h16v16H0z"/></clipPath></defs></svg>