<svg xmlns="http://www.w3.org/2000/svg" width="136" height="32" fill="none"><g fill="#282938" clip-path="url(#a)"><path d="M39 9.9h3.42v13.867H39V9.9Zm4.783 8.651c0-3.435 2.13-5.493 5.327-5.493 3.196 0 5.326 2.058 5.326 5.493 0 3.435-2.056 5.515-5.326 5.515-3.27 0-5.327-2.005-5.327-5.515Zm7.266 0c0-1.888-.735-2.997-1.907-2.997-1.172 0-1.897 1.066-1.897 2.997 0 1.93.725 2.987 1.897 2.987 1.172 0 1.928-1.056 1.928-2.976l-.021-.01Zm4.75 5.931h3.303a1.77 1.77 0 0 0 1.854 1.067c1.31 0 1.992-.704 1.992-1.75v-1.92h.01a3.273 3.273 0 0 1-3.195 1.867c-2.504 0-4.166-1.91-4.166-5.195s1.588-5.333 4.262-5.333a3.267 3.267 0 0 1 3.196 2.016h-.096v-1.931h3.388v10.39c0 2.506-2.216 4.075-5.476 4.075-2.962-.011-4.858-1.366-5.05-3.275l-.021-.01Zm7.16-5.93c0-1.676-.767-2.732-1.982-2.732-1.214 0-1.96 1.067-1.96 2.731s.735 2.646 1.96 2.646c1.226 0 1.982-.907 1.982-2.646Zm4.74 0c0-3.436 2.131-5.495 5.327-5.495s5.327 2.06 5.327 5.494c0 3.435-2.067 5.515-5.327 5.515s-5.305-2.005-5.305-5.515h-.022Zm7.266 0c0-1.889-.746-2.998-1.907-2.998s-1.896 1.066-1.896 2.997c0 1.93.724 2.987 1.896 2.987s1.928-1.056 1.928-2.976l-.021-.01Zm4.772-7.777a1.752 1.752 0 0 1 1.026-1.669 1.746 1.746 0 0 1 2.428 1.224 1.751 1.751 0 0 1-1.706 2.12 1.681 1.681 0 0 1-1.726-1.665l-.022-.01Zm0 2.517H83.2V23.81h-3.41l-.053-10.518Zm15.916 5.26c0 3.423-1.534 5.407-4.144 5.407a3.268 3.268 0 0 1-3.196-1.952h-.064v5.185h-3.42V13.324h3.399v1.878h.064a3.293 3.293 0 0 1 3.195-2.027c2.685-.022 4.23 1.952 4.23 5.387l-.064-.01Zm-3.483 0c0-1.665-.778-2.742-1.982-2.742s-1.96 1.066-1.97 2.741c-.011 1.675.766 2.73 1.97 2.73s2.046-.991 2.046-2.72l-.064-.01Zm9.321-5.505c2.866 0 4.645 1.355 4.666 3.53h-3.121c0-.757-.628-1.226-1.566-1.226-.938 0-1.385.363-1.385.907s.394.714 1.183.874l2.194.448c2.131.449 2.983 1.302 2.983 2.891 0 2.134-1.971 3.584-4.9 3.584-2.93 0-4.837-1.408-4.975-3.552h3.313c.095.779.713 1.238 1.715 1.238 1.001 0 1.47-.32 1.47-.886 0-.565-.319-.661-1.14-.832l-1.982-.416c-2.056-.437-3.132-1.514-3.132-3.125.065-2.091 1.854-3.425 4.741-3.425l-.064-.01Zm16.406 10.752h-3.313v-1.973h-.064a3.004 3.004 0 0 1-3.057 2.187 3.65 3.65 0 0 1-3.565-2.44 3.659 3.659 0 0 1-.196-1.518v-6.752h3.42v6.016c0 1.238.65 1.91 1.715 1.91a1.745 1.745 0 0 0 1.666-1.265c.068-.24.085-.493.049-.74v-5.921h3.409l-.064 10.496Zm1.651-10.507h3.324v2.027h.074a3.047 3.047 0 0 1 2.994-2.219 2.726 2.726 0 0 1 2.919 2.23h.149a3.201 3.201 0 0 1 3.196-2.23 3.318 3.318 0 0 1 2.519 1.016 3.328 3.328 0 0 1 .923 2.558v7.136h-3.442v-6.262c0-1.066-.501-1.664-1.47-1.664a1.488 1.488 0 0 0-1.452 1.06 1.506 1.506 0 0 0-.05.636v6.23h-3.26v-6.294c0-1.066-.522-1.632-1.459-1.632a1.521 1.521 0 0 0-1.468 1.075 1.537 1.537 0 0 0-.056.643v6.208h-3.419l-.022-10.518ZM32.236 10.806c0-2.123-.64-4.196-1.837-5.949a10.512 10.512 0 0 0-16.444-1.176H.66v28.097h28.071V18.647a10.529 10.529 0 0 0 3.505-7.84Zm-5.401 0a5.147 5.147 0 0 1-3.163 4.758 5.128 5.128 0 0 1-5.599-1.108 5.144 5.144 0 0 1 3.627-8.78c1.36 0 2.665.54 3.627 1.502a5.145 5.145 0 0 1 1.508 3.628ZM23.33 26.37H6.061V9.089h5.263a10.197 10.197 0 0 0-.16 1.717 10.568 10.568 0 0 0 3.09 7.457 10.54 10.54 0 0 0 7.446 3.093c.546-.003 1.091-.05 1.63-.139v5.153Z"/></g><defs><clipPath id="a"><path fill="#fff" d="M0 0h136v32H0z"/></clipPath></defs></svg>