<svg xmlns="http://www.w3.org/2000/svg" width="135" height="32" fill="none"><g fill="#282938" clip-path="url(#a)"><path d="M39.303 9.347h3.38v13.658h-3.38V9.347Zm4.722 8.5c0-3.377 2.074-5.393 5.275-5.393 3.2 0 5.274 2.016 5.274 5.394s-2.029 5.405-5.274 5.405c-3.246 0-5.275-1.97-5.275-5.405Zm7.157 0c0-1.857-.733-2.95-1.882-2.95-1.15 0-1.871 1.127-1.871 2.95 0 1.825.71 2.928 1.87 2.928 1.162 0 1.883-1.035 1.883-2.916v-.011Zm4.666 5.822h3.246a1.746 1.746 0 0 0 1.825 1.014c1.285 0 1.962-.698 1.962-1.712V21.08h-.068a3.199 3.199 0 0 1-3.077 1.847c-2.468 0-4.102-1.88-4.102-5.112 0-3.231 1.555-5.27 4.147-5.27a3.238 3.238 0 0 1 3.11 1.982v-1.88h3.382v10.246c0 2.466-2.175 3.998-5.387 3.998-2.987 0-4.847-1.34-5.038-3.21v-.01Zm7.044-5.832c0-1.644-.755-2.68-1.95-2.68-1.195 0-1.927 1.024-1.927 2.68 0 1.655.721 2.59 1.927 2.59s1.95-.913 1.95-2.58v-.01Zm4.655 0c0-3.378 2.073-5.394 5.274-5.394s5.286 2.016 5.286 5.394-2.029 5.404-5.286 5.404c-3.257 0-5.274-1.959-5.274-5.393v-.011Zm7.156 0c0-1.858-.732-2.95-1.882-2.95s-1.814 1.137-1.814 2.972.71 2.928 1.86 2.928c1.149 0 1.836-1.047 1.836-2.928v-.022Zm4.689-7.646a1.722 1.722 0 0 1 2.02-1.742 1.725 1.725 0 0 1 1.31 2.323 1.722 1.722 0 0 1-1.572 1.097 1.648 1.648 0 0 1-1.758-1.655v-.023Zm0 2.477h3.381v10.337h-3.381V12.668Zm15.655 5.169c0 3.378-1.5 5.303-4.069 5.303a3.224 3.224 0 0 1-3.156-1.914h-.067v5.09h-3.381v-13.67h3.38v1.846h.068a3.23 3.23 0 0 1 3.133-1.993c2.593.046 4.136 1.982 4.136 5.36l-.044-.022Zm-3.381 0c0-1.644-.756-2.691-1.939-2.691-1.184 0-1.939 1.058-1.95 2.69-.011 1.633.766 2.68 1.95 2.68 1.183 0 1.939-1.024 1.939-2.657v-.022Zm9.185-5.405c2.806 0 4.508 1.329 4.587 3.457h-3.077c0-.732-.608-1.194-1.544-1.194s-1.352.36-1.352.89c0 .529.372.698 1.127.855l2.163.44c2.064.439 2.942 1.272 2.942 2.837 0 2.14-1.95 3.513-4.824 3.513-2.874 0-4.756-1.373-4.902-3.48h3.257c.102.767.71 1.217 1.702 1.217.991 0 1.443-.327 1.443-.867s-.316-.653-1.127-.822l-1.95-.417c-2.018-.416-3.077-1.486-3.077-3.062.023-2.027 1.837-3.345 4.632-3.345v-.022Zm16.128 10.55h-3.258v-1.925h-.067a2.94 2.94 0 0 1-2.998 2.15 3.598 3.598 0 0 1-3.588-2.373c-.174-.483-.241-.999-.199-1.511v-6.677h3.382v5.9c0 1.227.631 1.88 1.679 1.88a1.716 1.716 0 0 0 1.653-1.222c.072-.235.092-.482.06-.726v-5.832h3.382l-.046 10.336Zm1.634-10.336h3.269v1.993h.067a3 3 0 0 1 2.942-2.184 2.691 2.691 0 0 1 2.874 2.252h.068a3.18 3.18 0 0 1 3.178-2.252 3.285 3.285 0 0 1 3.195 2.161c.156.433.219.893.186 1.352v7.037h-3.381v-6.137c0-1.126-.508-1.644-1.454-1.644a1.475 1.475 0 0 0-1.477 1.667v6.114h-3.211v-6.182c0-1.036-.507-1.599-1.432-1.599a1.514 1.514 0 0 0-1.441 1.06 1.527 1.527 0 0 0-.058.63v6.09h-3.381l.056-10.358ZM29.847 9.966a14.917 14.917 0 0 0-2.255-3.625A15.245 15.245 0 0 0 16.42.756a15.262 15.262 0 0 0-11.6 4.632 15.232 15.232 0 0 0-4.243 11.74 15.224 15.224 0 0 0 5.962 10.967 14.758 14.758 0 0 0 3.607 2.06 15.104 15.104 0 0 0 5.714 1.126 15.29 15.29 0 0 0 10.78-4.48 15.26 15.26 0 0 0 4.469-10.777 15.063 15.063 0 0 0-1.262-6.058ZM15.849 3.852c1.76 0 3.498.384 5.094 1.126-.39.168-.798.285-1.217.35a6.46 6.46 0 0 0-5.467 5.46 3.377 3.377 0 0 1-3.054 2.984 6.46 6.46 0 0 0-5.466 5.461 3.275 3.275 0 0 1-.89 1.96 12.15 12.15 0 0 1 .72-11.711 12.168 12.168 0 0 1 10.29-5.652l-.01.022ZM6.528 23.906c.135-.124.27-.237.406-.372a6.168 6.168 0 0 0 1.825-3.637c.073-.777.42-1.504.981-2.049a3.19 3.19 0 0 1 2.04-.968 6.46 6.46 0 0 0 5.466-5.461c.049-.814.398-1.58.98-2.15a3.236 3.236 0 0 1 2.063-.935 6.178 6.178 0 0 0 3.381-1.61c1.063.88 1.963 1.94 2.66 3.13a.966.966 0 0 1-.146.157 3.236 3.236 0 0 1-2.04.991 6.438 6.438 0 0 0-5.466 5.461 3.377 3.377 0 0 1-3.032 3.018 6.495 6.495 0 0 0-5.5 5.46c-.06.551-.25 1.08-.553 1.544a12.274 12.274 0 0 1-3.065-2.579Zm9.32 4.346a12.231 12.231 0 0 1-3.38-.473c.376-.7.62-1.463.72-2.252a3.377 3.377 0 0 1 3.021-3.017 6.46 6.46 0 0 0 5.478-5.461 3.377 3.377 0 0 1 3.02-3.018 6.438 6.438 0 0 0 2.885-1.126 12.172 12.172 0 0 1-2.116 10.524 12.193 12.193 0 0 1-9.627 4.767v.056Z"/></g><defs><clipPath id="a"><path fill="#fff" d="M0 0h135v32H0z"/></clipPath></defs></svg>