<svg xmlns="http://www.w3.org/2000/svg" width="160" height="32" fill="none"><g fill="#282938" clip-path="url(#a)"><path d="M24.447 14.083a4.368 4.368 0 0 0-.998 1.607 4.423 4.423 0 0 0-.23 1.885l-.022-.022a5.253 5.253 0 0 1-.292 2.215 5.19 5.19 0 0 1-1.184 1.883 5.09 5.09 0 0 1-1.854 1.202 5.03 5.03 0 0 1-2.181.297l.021.021a4.265 4.265 0 0 0-2.544.56 4.36 4.36 0 0 0-1.765 1.943 4.445 4.445 0 0 0-.345 2.62 4.41 4.41 0 0 0 1.201 2.345 4.298 4.298 0 0 0 2.311 1.218 4.26 4.26 0 0 0 2.58-.352 4.345 4.345 0 0 0 1.912-1.794 4.44 4.44 0 0 0 .55-2.584l.022.021a5.253 5.253 0 0 1 .292-2.214 5.189 5.189 0 0 1 1.184-1.883 5.09 5.09 0 0 1 1.854-1.202 5.028 5.028 0 0 1 2.181-.297l-.022-.021a4.251 4.251 0 0 0 2.114-.35 4.32 4.32 0 0 0 1.688-1.34 4.44 4.44 0 0 0 .635-4.165 4.377 4.377 0 0 0-1.21-1.796 4.286 4.286 0 0 0-1.912-.982 4.246 4.246 0 0 0-2.141.074c-.696.207-1.33.589-1.842 1.11h-.003ZM15.785 20.36l-.023-.022a4.202 4.202 0 0 0 1.859-.23 4.252 4.252 0 0 0 1.582-1.015 4.337 4.337 0 0 0 1.002-1.606 4.39 4.39 0 0 0 .227-1.887l.022.022a5.253 5.253 0 0 1 .292-2.214 5.19 5.19 0 0 1 1.184-1.884 5.091 5.091 0 0 1 1.855-1.202 5.03 5.03 0 0 1 2.18-.296l-.022-.022a4.266 4.266 0 0 0 2.545-.558 4.36 4.36 0 0 0 1.767-1.942 4.447 4.447 0 0 0 .346-2.62 4.408 4.408 0 0 0-1.2-2.346 4.297 4.297 0 0 0-2.31-1.22 4.26 4.26 0 0 0-2.581.352 4.344 4.344 0 0 0-1.913 1.794 4.441 4.441 0 0 0-.55 2.584l-.02-.022a5.25 5.25 0 0 1-.292 2.214 5.188 5.188 0 0 1-1.184 1.884 5.09 5.09 0 0 1-1.855 1.202 5.029 5.029 0 0 1-2.181.296l.021.023a4.205 4.205 0 0 0-1.858.229 4.253 4.253 0 0 0-1.583 1.016 4.338 4.338 0 0 0-1.001 1.606 4.39 4.39 0 0 0-.227 1.886l-.022-.02a5.254 5.254 0 0 1-.292 2.213 5.189 5.189 0 0 1-1.184 1.883 5.092 5.092 0 0 1-1.854 1.202 5.03 5.03 0 0 1-2.181.297l.021.022a4.264 4.264 0 0 0-2.545.558 4.36 4.36 0 0 0-1.767 1.942 4.446 4.446 0 0 0-.346 2.62 4.408 4.408 0 0 0 1.2 2.346 4.297 4.297 0 0 0 2.311 1.22 4.26 4.26 0 0 0 2.58-.352 4.345 4.345 0 0 0 1.913-1.794c.441-.784.633-1.686.55-2.584l.022.021a5.253 5.253 0 0 1 .292-2.214 5.19 5.19 0 0 1 1.184-1.884 5.091 5.091 0 0 1 1.855-1.202 5.03 5.03 0 0 1 2.18-.296ZM7.914 17.967a4.363 4.363 0 0 0 .998-1.607c.212-.603.29-1.247.23-1.885l.022.021a5.253 5.253 0 0 1 .292-2.214c.255-.708.66-1.351 1.184-1.884a5.092 5.092 0 0 1 1.856-1.202 5.029 5.029 0 0 1 2.181-.296l-.022-.021A4.263 4.263 0 0 0 17.2 8.32a4.359 4.359 0 0 0 1.766-1.942 4.445 4.445 0 0 0 .346-2.62 4.407 4.407 0 0 0-1.2-2.345A4.296 4.296 0 0 0 15.8.196a4.258 4.258 0 0 0-2.58.35A4.344 4.344 0 0 0 11.31 2.34a4.44 4.44 0 0 0-.55 2.583l-.02-.021a5.253 5.253 0 0 1-.293 2.214 5.189 5.189 0 0 1-1.184 1.883 5.092 5.092 0 0 1-1.854 1.202 5.028 5.028 0 0 1-2.181.297l.021.021a4.252 4.252 0 0 0-2.114.35 4.32 4.32 0 0 0-1.688 1.341 4.44 4.44 0 0 0-.634 4.165c.249.692.665 1.31 1.21 1.795a4.285 4.285 0 0 0 1.912.982 4.247 4.247 0 0 0 2.141-.074 4.297 4.297 0 0 0 1.842-1.11h-.003ZM44.285 6.076h3.487v17.231h-3.487V6.077ZM49.748 17.407a6.324 6.324 0 0 1 1.027-3.482 6.182 6.182 0 0 1 2.76-2.315 6.073 6.073 0 0 1 3.56-.366 6.131 6.131 0 0 1 3.161 1.706 6.285 6.285 0 0 1 1.693 3.203 6.345 6.345 0 0 1-.346 3.618 6.236 6.236 0 0 1-2.269 2.811 6.095 6.095 0 0 1-3.425 1.056 6.01 6.01 0 0 1-2.363-.455 6.086 6.086 0 0 1-2.005-1.347 6.192 6.192 0 0 1-1.336-2.031 6.268 6.268 0 0 1-.457-2.398Zm8.834 0a2.744 2.744 0 0 0-.486-1.488 2.682 2.682 0 0 0-1.215-.966 2.637 2.637 0 0 0-1.54-.124 2.665 2.665 0 0 0-1.35.76 2.731 2.731 0 0 0-.71 1.391 2.754 2.754 0 0 0 .164 1.56c.204.491.547.911.986 1.206.438.295.952.453 1.478.453a2.603 2.603 0 0 0 1.939-.8 2.684 2.684 0 0 0 .735-1.99ZM75.969 11.506v11.207c0 3.965-3.046 5.641-6.137 5.641a5.867 5.867 0 0 1-3.15-.645 5.981 5.981 0 0 1-2.36-2.216l2.976-1.747c.24.493.622.9 1.096 1.165a2.623 2.623 0 0 0 1.554.322c.344.049.694.018 1.025-.09.33-.108.633-.29.885-.532.253-.242.448-.54.572-.869.124-.329.173-.683.144-1.034v-1.079c-.408.507-.928.91-1.517 1.177a4.074 4.074 0 0 1-1.877.357 5.866 5.866 0 0 1-4.056-1.82 6.046 6.046 0 0 1-1.665-4.175c0-1.558.597-3.055 1.665-4.174a5.867 5.867 0 0 1 4.056-1.82 4.075 4.075 0 0 1 1.877.357c.59.266 1.109.67 1.517 1.177v-1.204l3.395.002Zm-3.393 5.664a2.894 2.894 0 0 0-.418-1.621 2.832 2.832 0 0 0-1.24-1.106 2.78 2.78 0 0 0-3.11.544 2.874 2.874 0 0 0-.803 1.464 2.903 2.903 0 0 0 .141 1.67c.21.53.572.983 1.039 1.302.466.32 1.016.49 1.578.49a2.596 2.596 0 0 0 2.005-.739c.265-.258.474-.57.613-.915.139-.345.205-.716.195-1.089ZM77.944 17.407a6.324 6.324 0 0 1 1.026-3.482 6.182 6.182 0 0 1 2.76-2.315 6.073 6.073 0 0 1 3.561-.366 6.131 6.131 0 0 1 3.16 1.706 6.285 6.285 0 0 1 1.694 3.203 6.344 6.344 0 0 1-.347 3.618 6.236 6.236 0 0 1-2.268 2.811 6.095 6.095 0 0 1-3.426 1.056 6.009 6.009 0 0 1-2.362-.455 6.085 6.085 0 0 1-2.006-1.347 6.192 6.192 0 0 1-1.335-2.031 6.27 6.27 0 0 1-.457-2.398Zm8.834 0a2.745 2.745 0 0 0-.487-1.488 2.681 2.681 0 0 0-1.215-.966 2.636 2.636 0 0 0-1.539-.124 2.665 2.665 0 0 0-1.35.76 2.73 2.73 0 0 0-.712 1.391 2.755 2.755 0 0 0 .165 1.56c.205.491.548.911.986 1.206.438.295.952.453 1.478.453a2.603 2.603 0 0 0 1.939-.8 2.687 2.687 0 0 0 .735-1.99ZM91.89 8.342c0-.42.123-.83.353-1.18.23-.35.557-.622.94-.783.382-.16.802-.202 1.208-.12.406.082.778.284 1.072.581a2.147 2.147 0 0 1-.317 3.269 2.07 2.07 0 0 1-1.163.358 2.099 2.099 0 0 1-1.474-.629 2.163 2.163 0 0 1-.618-1.496Zm.353 3.163h3.488v11.803h-3.493l.005-11.803ZM110.789 17.407c.04.78-.071 1.56-.329 2.297a5.955 5.955 0 0 1-1.173 1.992 5.854 5.854 0 0 1-1.835 1.381 5.772 5.772 0 0 1-2.219.56 4.303 4.303 0 0 1-1.891-.323 4.362 4.362 0 0 1-1.571-1.116v5.83h-3.488V11.507h3.488v1.108a4.363 4.363 0 0 1 1.572-1.115 4.3 4.3 0 0 1 1.89-.324 5.772 5.772 0 0 1 2.219.56c.695.334 1.32.804 1.836 1.383a5.959 5.959 0 0 1 1.501 4.29Zm-3.487 0a2.827 2.827 0 0 0-.5-1.54 2.769 2.769 0 0 0-1.255-1.004 2.725 2.725 0 0 0-1.592-.131 2.757 2.757 0 0 0-1.399.785c-.38.395-.637.896-.738 1.439-.1.543-.042 1.104.169 1.613.212.509.567.944 1.02 1.25.454.305.986.468 1.53.467.373.017.746-.046 1.094-.186.348-.14.662-.352.924-.624a2.73 2.73 0 0 0 .747-2.069ZM121.548 19.767c0 2.714-2.323 3.87-4.833 3.87a5.026 5.026 0 0 1-2.924-.625 5.128 5.128 0 0 1-2.074-2.183l3.02-1.747c.123.427.385.797.744 1.05.36.254.793.375 1.229.343.837 0 1.255-.26 1.255-.731 0-1.3-5.719-.614-5.719-4.697 0-2.574 2.14-3.872 4.557-3.872.909-.029 1.809.19 2.606.634a5.12 5.12 0 0 1 1.926 1.892l-2.975 1.628a1.71 1.71 0 0 0-.625-.757 1.67 1.67 0 0 0-.932-.281c-.604 0-.977.238-.977.66.004 1.346 5.722.448 5.722 4.816ZM134.289 11.505v11.803h-3.487v-1.11c-.402.49-.913.876-1.49 1.126a3.921 3.921 0 0 1-1.833.314c-2.348 0-4.344-1.698-4.344-4.888v-7.245h3.487v6.727a1.973 1.973 0 0 0 .521 1.549 1.914 1.914 0 0 0 1.501.597c1.279 0 2.161-.755 2.161-2.431v-6.438l3.484-.004ZM154.283 16.061v7.247h-3.487v-6.94c0-1.18-.559-1.935-1.674-1.935-1.162 0-1.814.826-1.814 2.218v6.657h-3.485v-6.94c0-1.18-.559-1.935-1.675-1.935-1.163 0-1.813.826-1.813 2.218v6.657h-3.487V11.505h3.487v1.084a3.578 3.578 0 0 1 1.381-1.11 3.518 3.518 0 0 1 1.734-.305 3.412 3.412 0 0 1 1.724.371c.534.273.989.682 1.321 1.186a3.836 3.836 0 0 1 1.488-1.22 3.777 3.777 0 0 1 1.882-.337c2.669.002 4.418 1.937 4.418 4.887ZM157.234 11.432c1.429 0 2.588-1.176 2.588-2.627 0-1.451-1.159-2.628-2.588-2.628-1.428 0-2.588 1.177-2.588 2.628s1.16 2.627 2.588 2.627Z"/></g><defs><clipPath id="a"><path fill="#fff" d="M0 0h160v32H0z"/></clipPath></defs></svg>