<svg xmlns="http://www.w3.org/2000/svg" width="140" height="29" fill="none"><g fill="#fff" clip-path="url(#a)"><path d="M139.752 21.656v3.464h-2.906c-3.101-.097-4.758-1.772-4.758-4.917V12.29h-2.029V9.25h2.029V5.849h4.288v3.367h3.279v3.03h-3.279v7.532c0 1.02.204 1.834 1.772 1.834l1.604.045ZM112.965 17.217v-.23a7.758 7.758 0 0 1 4.472-7.382 7.752 7.752 0 0 1 2.945-.718h.62c4.049 0 7.602 2.357 7.602 7.975v1.196h-11.253c.115 2.588 1.515 4.05 3.872 4.05 2.029 0 2.977-.886 3.252-2.18h4.05c-.497 3.376-3.19 5.254-7.452 5.254-4.679-.035-8.108-2.994-8.108-7.965Zm11.422-1.87c-.151-2.357-1.338-3.491-3.403-3.491s-3.252 1.276-3.544 3.49h6.947ZM95.457 17.217v-.23a7.751 7.751 0 0 1 7.399-8.1h.62c4.05 0 7.612 2.357 7.612 7.975v1.196H99.843c.115 2.588 1.516 4.05 3.873 4.05 2.029 0 2.977-.886 3.251-2.18h4.05c-.505 3.376-3.199 5.254-7.461 5.254-4.67-.035-8.099-2.994-8.099-7.965Zm11.422-1.87c-.151-2.357-1.338-3.491-3.403-3.491-2.064 0-3.216 1.311-3.544 3.482l6.947.009ZM70.887 9.215h4.536l2.774 10.509 3.04-10.509h3.543l2.747 10.509 2.924-10.509h4.156L89.68 24.828h-4.253l-2.658-9.8-2.844 9.8h-4.307L70.887 9.215ZM56.469 19.919h4.05c.185 1.409.885 2.215 2.746 2.215 1.666 0 2.437-.629 2.437-1.701s-.886-1.524-3.155-1.843c-4.155-.63-5.76-1.825-5.76-4.874 0-3.252 2.978-4.864 6.203-4.864 3.465 0 6.079 1.258 6.45 4.847h-3.995a2.11 2.11 0 0 0-2.313-1.905h-.133c-1.4 0-2.215.655-2.215 1.612 0 .957.753 1.374 3.04 1.701 3.88.585 6.051 1.569 6.051 4.91 0 3.34-2.454 5.13-6.566 5.13-4.111 0-6.725-1.852-6.84-5.228ZM39.262 9.215h4.288v2.472a5.37 5.37 0 0 1 5.06-2.835c3.04 0 5.245 1.852 5.245 6.078v9.933H49.62v-9.312c0-2.118-.824-3.128-2.738-3.128a3.083 3.083 0 0 0-3.34 2.818 2.423 2.423 0 0 0 0 .567v9.02h-4.28V9.215ZM30.986 5.29a2.162 2.162 0 1 1 2.233 2.082h-.08a2.02 2.02 0 0 1-2.144-1.896 1.3 1.3 0 0 1-.01-.186Zm0 3.925h4.333v15.613h-4.316l-.017-15.613ZM14.656 3.491h13.699v3.784h-8.86v5.644h7.017v3.642h-7.027v8.267h-4.829V3.49ZM6.389 10.473c0 1.338 0 2.969-1.843 3.633 1.887.647 1.843 2.02 1.843 3.456v5.316c0 1.01.407 1.622 1.134 1.773.16.053.328.078.496.07h1.772v3.545H6.867c-3.119 0-4.838-1.772-4.838-5.06v-6.29A1.294 1.294 0 0 0 .762 15.71H0V12.6h.762a1.285 1.285 0 0 0 1.267-1.24V4.98C2.03 1.746 3.713 0 6.867 0h2.95v3.491H8.047c-.169 0-.336.028-.497.08-.726.186-1.134.788-1.134 1.772l-.026 5.13Z"/></g><defs><clipPath id="a"><path fill="#fff" d="M0 0h140v28.354H0z"/></clipPath></defs></svg>