<svg xmlns="http://www.w3.org/2000/svg" width="136" height="32" fill="none"><g fill="#282938" clip-path="url(#a)"><path d="M32.934 7.806h3.119v15.162h-3.12V7.806ZM37.797 17.774c0-1.091.321-2.157.922-3.064a5.47 5.47 0 0 1 2.455-2.029c1-.416 2.098-.523 3.158-.308a5.444 5.444 0 0 1 2.794 1.517 5.524 5.524 0 0 1 1.486 2.828 5.556 5.556 0 0 1-.323 3.186 5.497 5.497 0 0 1-2.024 2.465c-.902.602-1.96.92-3.04.913a5.344 5.344 0 0 1-2.091-.408 5.384 5.384 0 0 1-1.77-1.194 5.478 5.478 0 0 1-1.566-3.906Zm7.819 0a2.408 2.408 0 0 0-.43-1.312 2.373 2.373 0 0 0-1.076-.853 2.35 2.35 0 0 0-2.562.558 2.413 2.413 0 0 0-.486 2.599c.18.434.484.804.873 1.064.388.26.844.399 1.31.399a2.291 2.291 0 0 0 1.705-.71 2.33 2.33 0 0 0 .645-1.745h.02ZM60.992 12.58v9.874c0 3.483-2.703 4.963-5.437 4.963a5.158 5.158 0 0 1-2.793-.559 5.218 5.218 0 0 1-2.083-1.96l2.63-1.531c.214.433.553.791.973 1.026.42.234.9.334 1.377.285a2.062 2.062 0 0 0 1.684-.558 2.098 2.098 0 0 0 .645-1.666v-.955a3.673 3.673 0 0 1-1.345 1.03c-.522.233-1.09.34-1.66.313-1.378 0-2.7-.553-3.675-1.537a5.27 5.27 0 0 1-1.523-3.71 5.27 5.27 0 0 1 1.523-3.709 5.174 5.174 0 0 1 3.675-1.537c.57-.027 1.138.08 1.66.313.521.234.982.586 1.345 1.03v-1.049l3.005-.063Zm-3.004 4.984a2.536 2.536 0 0 0-.37-1.426 2.503 2.503 0 0 0-1.096-.974 2.474 2.474 0 0 0-2.753.477 2.54 2.54 0 0 0-.59 2.756c.186.466.505.866.917 1.148a2.48 2.48 0 0 0 1.397.433 2.31 2.31 0 0 0 1.779-.648 2.354 2.354 0 0 0 .716-1.766ZM62.75 17.774c0-1.09.32-2.156.92-3.062a5.469 5.469 0 0 1 2.452-2.028 5.41 5.41 0 0 1 3.155-.312 5.443 5.443 0 0 1 2.795 1.51 5.525 5.525 0 0 1 1.49 2.824c.21 1.069.1 2.177-.314 3.183a5.497 5.497 0 0 1-2.015 2.47 5.422 5.422 0 0 1-3.035.923 5.354 5.354 0 0 1-2.095-.405 5.392 5.392 0 0 1-1.776-1.193 5.45 5.45 0 0 1-1.18-1.795 5.488 5.488 0 0 1-.397-2.115Zm7.819 0a2.408 2.408 0 0 0-.43-1.313 2.375 2.375 0 0 0-1.079-.853 2.35 2.35 0 0 0-2.563.563 2.414 2.414 0 0 0-.48 2.602c.183.434.489.803.878 1.062.39.259.847.396 1.314.394a2.291 2.291 0 0 0 1.705-.71 2.33 2.33 0 0 0 .644-1.745h.01ZM75.09 9.8c0-.37.108-.73.312-1.038a1.834 1.834 0 0 1 2.847-.283 1.874 1.874 0 0 1 .401 2.036c-.14.34-.377.633-.681.838a1.84 1.84 0 0 1-1.029.315 1.863 1.863 0 0 1-1.302-.554A1.898 1.898 0 0 1 75.09 9.8Zm.301 2.78h3.12v10.388h-3.12V12.58ZM91.86 17.773a5.28 5.28 0 0 1-1.345 3.796 5.198 5.198 0 0 1-1.638 1.22 5.157 5.157 0 0 1-1.977.493 3.836 3.836 0 0 1-1.703-.275 3.869 3.869 0 0 1-1.416-.995v5.131h-3.119V12.58h3.119v.976a3.828 3.828 0 0 1 3.119-1.26A5.163 5.163 0 0 1 90.503 14a5.26 5.26 0 0 1 1.356 3.775Zm-3.12 0a2.496 2.496 0 0 0-.444-1.359 2.46 2.46 0 0 0-1.115-.884 2.435 2.435 0 0 0-2.654.581 2.496 2.496 0 0 0-.498 2.694c.19.449.505.831.909 1.1.403.267.876.41 1.359.408a2.33 2.33 0 0 0 1.785-.718 2.395 2.395 0 0 0 .658-1.822ZM101.351 19.852c0 2.392-2.08 3.41-4.283 3.41a4.48 4.48 0 0 1-2.592-.552 4.538 4.538 0 0 1-1.837-1.924l2.682-1.532c.106.374.337.7.653.924.316.223.698.33 1.083.303.738 0 1.113-.23 1.113-.65 0-1.144-5.064-.535-5.064-4.134 0-2.267 1.893-3.4 4.035-3.4a4.48 4.48 0 0 1 2.34.54c.717.39 1.317.968 1.735 1.674l-2.683 1.427a1.51 1.51 0 0 0-1.382-.913c-.54 0-.863.21-.863.577 0 1.196 5.063.41 5.063 4.25ZM112.652 12.58v10.388h-3.119v-.976a3.542 3.542 0 0 1-2.932 1.29c-2.079 0-3.857-1.5-3.857-4.301v-6.4h3.119v5.927a1.74 1.74 0 0 0 .467 1.363 1.705 1.705 0 0 0 1.331.526c1.124 0 1.913-.671 1.913-2.098V12.58h3.078ZM130.326 16.588v6.38h-3.119V16.86c0-1.05-.489-1.7-1.477-1.7-.988 0-1.611.724-1.611 1.952v5.855H121V16.86c0-1.05-.488-1.7-1.477-1.7-.987 0-1.611.724-1.611 1.952v5.855h-3.119V12.58h3.119v.955a3.187 3.187 0 0 1 1.228-.972 3.157 3.157 0 0 1 1.538-.266 3.024 3.024 0 0 1 1.525.322c.471.24.874.598 1.167 1.042a3.39 3.39 0 0 1 1.318-1.07 3.363 3.363 0 0 1 1.666-.294c2.433 0 3.972 1.7 3.972 4.291ZM14.355 5.078V.618H.424v30.64h13.931v-4.46a10.71 10.71 0 0 1-7.609-3.181 10.91 10.91 0 0 1-3.151-7.68A10.91 10.91 0 0 1 6.746 8.26a10.71 10.71 0 0 1 7.609-3.181Z"/><path d="M14.354 5.078v21.72a10.71 10.71 0 0 0 7.608-3.181 10.91 10.91 0 0 0 3.152-7.68 10.91 10.91 0 0 0-3.152-7.679 10.71 10.71 0 0 0-7.608-3.18ZM132.946 12.518a2.298 2.298 0 0 0 2.287-2.309 2.298 2.298 0 0 0-2.287-2.308 2.298 2.298 0 0 0-2.288 2.308 2.298 2.298 0 0 0 2.288 2.309Z"/></g><defs><clipPath id="a"><path fill="#fff" d="M0 0h136v32H0z"/></clipPath></defs></svg>